<svg width="16" height="13" viewBox="0 0 16 13" fill="none" xmlns="http://www.w3.org/2000/svg">
<path d="M15.0228 5.53648C14.2383 2.68976 12.3027 0.619629 10.4206 0.619629C10.2699 0.619707 10.1196 0.633134 9.97129 0.659757C9.93042 0.667358 9.89158 0.683541 9.85724 0.707266C9.82291 0.730991 9.79385 0.761735 9.77193 0.797522C9.75001 0.83331 9.73571 0.873351 9.72995 0.915073C9.7242 0.956796 9.72711 0.999278 9.7385 1.03979L10.1261 2.44427C10.1449 2.50962 10.1846 2.56678 10.239 2.60673C10.2934 2.64669 10.3593 2.66718 10.4264 2.66497H10.4566C11.155 2.66497 12.4353 3.72718 13.0802 6.08765C13.1058 6.18089 13.1302 6.27648 13.1535 6.3768C12.4108 6.00862 11.5613 5.92764 10.7639 6.14902C10.3359 6.26514 9.93487 6.4662 9.58401 6.74057C9.23316 7.01494 8.93947 7.35716 8.71995 7.74742C8.50043 8.13768 8.35944 8.56822 8.30515 9.01411C8.25086 9.46 8.28434 9.91238 8.40366 10.3451C8.52298 10.7777 8.72577 11.1821 9.00027 11.5348C9.27478 11.8874 9.61556 12.1814 10.0029 12.3996C10.3902 12.6177 10.8163 12.7559 11.2567 12.8059C11.697 12.8559 12.1427 12.8169 12.568 12.691C13.184 12.4856 13.7368 12.1214 14.1722 11.6342C14.6076 11.1469 14.9107 10.5534 15.0519 9.9116C15.4374 8.47803 15.4273 6.96465 15.0228 5.53648Z" fill="white"/>
<path d="M2.66293 0.623053C2.51234 0.622735 2.36201 0.635767 2.21365 0.662C2.17287 0.669768 2.13413 0.686054 2.09989 0.709823C2.06565 0.733592 2.03666 0.764325 2.01477 0.800067C1.99288 0.835809 1.97856 0.875778 1.97272 0.917434C1.96688 0.959091 1.96966 1.00152 1.98086 1.04203L2.36845 2.44651C2.38691 2.51208 2.42654 2.56947 2.48099 2.60949C2.53543 2.64951 2.60155 2.66983 2.66875 2.66721H2.69901C3.39737 2.66721 4.6777 3.72942 5.32252 6.08989C5.34813 6.18431 5.37257 6.27991 5.39585 6.37905C4.6521 6.00782 3.80017 5.92513 3.00047 6.14654C2.57245 6.26266 2.17141 6.46373 1.82055 6.73809C1.4697 7.01246 1.17601 7.35469 0.95649 7.74494C0.73697 8.1352 0.595983 8.56574 0.541692 9.01163C0.487401 9.45752 0.520885 9.9099 0.640204 10.3426C0.759524 10.7753 0.962309 11.1796 1.23682 11.5323C1.51132 11.885 1.8521 12.1789 2.23941 12.3971C2.62672 12.6153 3.05288 12.7534 3.49319 12.8034C3.93351 12.8535 4.37924 12.8144 4.80457 12.6886C5.42049 12.483 5.9732 12.1188 6.40861 11.6316C6.84401 11.1444 7.14717 10.5508 7.28841 9.90912C7.67477 8.47624 7.66591 6.96331 7.2628 5.53518C6.48064 2.68846 4.54501 0.623053 2.66293 0.623053Z" fill="white"/>
</svg>
